{"title":"Kung.Fu.Panda.2.2011.1080p.720p.BRRip.x264.ogg.mkv-anoXmous","uid":6748167,"size":731602967,"categoryP":"video","categoryS":"hd___movies","magnet":"?xt=urn:btih:9827841b0a163eca8a51f90a34904d10d0783449&amp;dn=Kung.Fu.Panda.2.2011.1080p.720p.BRRip.x264.ogg.mkv-anoXmous&amp;tr=udp%3A%2F%2Ftracker.openbittorrent.com%3A80&amp;tr=udp%3A%2F%2Fopen.demonii.com%3A1337&amp;tr=udp%3A%2F%2Ftracker.coppersurfer.tk%3A6969&amp;tr=udp%3A%2F%2Fexodus.desync.com%3A6969","seeders":0,"leechers":1,"uploader":"anoXmous","files":-1,"time":1318784253,"description":"Kung.Fu.Panda.2.2011.1080p.720p.BRRip.x264.ogg.mkv-anoXmous\n\n\n\nFormat                           : Matroska\n\nFormat version                   : Version 2\n\nFile size                        : 698 MiB\n\nDuration                         : 1h 30mn\n\nOverall bit rate                 : 1 079 Kbps\n\nWriting application              : mkvmerge v5.0.0 ('Die Wahre Liebe') built on Sep 25 2011 20:33:49\n\nWriting library                  : libebml v1.2.2 + libmatroska v1.3.0\n\n\n\nVideo\n\nID                               : 1\n\nFormat                           : AVC\n\nFormat/Info                      : Advanced Video Codec\n\nFormat profile                   : &lt;a class=&quot;__cf_email__&quot; href=&quot;/cdn-cgi/l/email-protection&quot; data-cfemail=&quot;034b6a646b434f372d32&quot;&gt;[email&amp;#160;protected]&lt;/a&gt;&lt;script cf-hash='f9e31' type=&quot;text/javascript&quot;&gt;\n/* &lt;![CDATA[ */!function(){try{var t=&quot;currentScript&quot;in document?document.currentScript:function(){for(var t=document.getElementsByTagName(&quot;script&quot;),e=t.length;e--;)if(t[e].getAttribute(&quot;cf-hash&quot;))return t[e]}();if(t&amp;&amp;t.previousSibling){var e,r,n,i,c=t.previousSibling,a=c.getAttribute(&quot;data-cfemail&quot;);if(a){for(e=&quot;&quot;,r=parseInt(a.substr(0,2),16),n=2;a.length-n;n+=2)i=parseInt(a.substr(n,2),16)^r,e+=String.fromCharCode(i);e=document.createTextNode(e),c.parentNode.replaceChild(e,c)}}}catch(u){}}();/* ]]&gt; */&lt;/script&gt;\n\nFormat settings, CABAC           : Yes\n\nFormat settings, ReFrames        : 4 frames\n\nMuxing mode                      : Header stripping\n\nCodec ID                         : V_MPEG4/ISO/AVC\n\nDuration                         : 1h 30mn\n\nBit rate                         : 1 017 Kbps\n\nWidth                            : 1 920 pixels\n\nHeight                           : 816 pixels\n\nDisplay aspect ratio             : 2.35:1\n\nFrame rate                       : 23.976 fps\n\nColor space                      : YUV\n\nChroma subsampling               : 4:2:0\n\nBit depth                        : 8 bits\n\nScan type                        : Progressive\n\nBits/(Pixel*Frame)               : 0.027\n\nStream size                      : 642 MiB (92%)\n\nWriting library                  : x264 core 118 r2085 8a62835\n\nEncoding settings                : cabac=1 / ref=3 / deblock=1:0:0 / analyse=0x3:0x133 / me=hex / subme=7 / psy=1 / psy_rd=1.00:0.00 / mixed_ref=1 / me_range=16 / chroma_me=1 / trellis=1 / 8x8dct=1 / cqm=0 / deadzone=21,11 / fast_pskip=1 / chroma_qp_offset=-2 / threads=3 / sliced_threads=0 / nr=0 / decimate=1 / interlaced=0 / bluray_compat=0 / constrained_intra=0 / bframes=4 / b_pyramid=2 / b_adapt=1 / b_bias=0 / direct=1 / weightb=1 / open_gop=0 / weightp=2 / keyint=250 / keyint_min=23 / scenecut=40 / intra_refresh=0 / rc_lookahead=40 / rc=2pass / mbtree=1 / bitrate=1017 / ratetol=1.0 / qcomp=0.60 / qpmin=0 / qpmax=69 / qpstep=4 / cplxblur=20.0 / qblur=0.5 / ip_ratio=1.40 / aq=1:1.00\n\n\n\nAudio\n\nID                               : 2\n\nFormat                           : Vorbis\n\nFormat settings, Floor           : 1\n\nCodec ID                         : A_VORBIS\n\nDuration                         : 1h 30mn\n\nBit rate mode                    : Variable\n\nBit rate                         : 64.0 Kbps\n\nChannel(s)                       : 2 channels\n\nSampling rate                    : 48.0 KHz\n\nCompression mode                 : Lossy\n\nStream size                      : 41.4 MiB (6%)\n\nWriting library                  : aoTuV 20110424 (UTC 2011-04-24)\n\nLanguage                         : English\n\n\n\nText #1\n\nID                               : 3\n\nFormat                           : UTF-8\n\nCodec ID                         : S_TEXT/UTF8\n\nCodec ID/Info                    : UTF-8 Plain Text\n\nLanguage                         : English\n\n\n\nText #2\n\nID                               : 4\n\nFormat                           : UTF-8\n\nCodec ID                         : S_TEXT/UTF8\n\nCodec ID/Info                    : UTF-8 Plain Text\n\nLanguage                         : Swedish\n\n\n &lt;a href=&quot;\nhttp://www.imdb.com/title/tt1302011/&quot; rel=&quot;nofollow&quot; target=&quot;_NEW&quot;&gt;\nhttp://www.imdb.com/title/tt1302011/&lt;/a&gt;","torrent":{"xt":"urn:btih:9827841b0a163eca8a51f90a34904d10d0783449","amp;dn":"Kung.Fu.Panda.2.2011.1080p.720p.BRRip.x264.ogg.mkv-anoXmous","amp;tr":["udp%3A%2F%2Ftracker.openbittorrent.com%3A80","udp%3A%2F%2Fopen.demonii.com%3A1337","udp%3A%2F%2Ftracker.coppersurfer.tk%3A6969","udp%3A%2F%2Fexodus.desync.com%3A6969"],"infoHash":"9827841b0a163eca8a51f90a34904d10d0783449","infoHashBuffer":{"type":"Buffer","data":[152,39,132,27,10,22,62,202,138,81,249,10,52,144,77,16,208,120,52,73]},"announce":[],"urlList":[]}}